<?xml version="1.0" encoding="utf-8"?>
<!-- Generator: Adobe Illustrator 24.0.1, SVG Export Plug-In . SVG Version: 6.00 Build 0)  -->
<svg version="1.1" id="Layer_1" xmlns="http://www.w3.org/2000/svg" xmlns:xlink="http://www.w3.org/1999/xlink" x="0px" y="0px"
	 viewBox="0 0 30 30" style="enable-background:new 0 0 30 30;" xml:space="preserve">
<style type="text/css">
	.st0{fill:url(#SVGID_1_);}
	.st1{fill:#015BDF;}
	.st2{fill:url(#SVGID_2_);}
	.st3{fill:#FFFFFF;}
	.st4{fill:url(#SVGID_3_);}
	.st5{fill:url(#SVGID_4_);}
	.st6{fill:url(#SVGID_5_);}
	.st7{fill:url(#SVGID_6_);}
	.st8{fill-rule:evenodd;clip-rule:evenodd;fill:#FFFFFF;}
	.st9{fill:#0068FE;}
</style>
<linearGradient id="SVGID_1_" gradientUnits="userSpaceOnUse" x1="-0.7776" y1="22.4715" x2="27.1719" y2="3.7118">
	<stop  offset="0" style="stop-color:#0068FE"/>
	<stop  offset="1" style="stop-color:#0E4AA4"/>
</linearGradient>
<path class="st0" d="M8.54,23.02l21.66-2.97V7.73c0-4.34-3.52-7.86-7.86-7.86H7.93c-4.34,0-7.86,3.52-7.86,7.86v14.41
	c0,4.2,3.3,7.62,7.45,7.84l-2.07-3.75L8.54,23.02z"/>
<path class="st1" d="M22.33,30c4.34,0,7.86-3.52,7.86-7.86v-2.09L8.54,23.02l-3.1,3.21l2.07,3.75C7.65,29.99,7.79,30,7.93,30H22.33z
	"/>
<path class="st3" d="M4.58,7.36c-0.85,2.5-0.98,5.37-0.34,7.93c0.52,2.11,1.5,3.89,3.31,6.02c0.62,0.72,0.72,0.89,0.72,1.23
	c0,0.78-1.01,2.03-2.36,2.93C5.12,26,5.38,26.13,7.17,26.15c1.33,0.01,2.11-0.13,3.89-0.67c0.69-0.21,1.41-0.38,1.6-0.38
	s0.79,0.14,1.32,0.32c3.14,1.01,6.03,1.07,9.15,0.21c1.88-0.52,3.37-1.22,4.94-2.34c0.69-0.49,1.99-1.64,2.05-1.83
	c0.02-0.04,0.08-0.08,0.14-0.08c0.01,0,0.02,0.05,0.03,0.12V7.7c0-4.32-3.51-7.83-7.83-7.83H10.68L10.31,0.1
	C7.75,1.71,5.56,4.48,4.58,7.36z"/>
<g>
	<path class="st9" d="M20.55,8.83l-0.24,0.19l-0.03,3.17c-0.02,1.73,0,3.31,0.03,3.49c0.13,0.71,0.83,0.96,1.31,0.47l0.25-0.24
		v-3.43c0-3.4,0-3.43-0.22-3.64C21.37,8.59,20.86,8.58,20.55,8.83z"/>
	<path class="st9" d="M9.3,9.22c-0.65,0.03-0.76,0.07-0.94,0.3c-0.23,0.3-0.19,0.59,0.12,0.86c0.17,0.15,0.41,0.18,1.66,0.18
		c1.19,0,1.45,0.03,1.41,0.13c-0.03,0.08-0.8,1.09-1.71,2.25c-0.91,1.16-1.69,2.21-1.73,2.34c-0.09,0.32,0.11,0.78,0.41,0.92
		c0.16,0.07,1.09,0.11,2.66,0.11h2.41l0.2-0.26c0.27-0.35,0.26-0.59-0.04-0.9c-0.24-0.24-0.28-0.25-1.87-0.25
		c-0.89,0-1.61-0.02-1.61-0.05s0.6-0.81,1.35-1.74c2.22-2.78,2.4-3.11,2.04-3.61c-0.12-0.15-0.32-0.2-1.09-0.26
		C11.61,9.17,10.57,9.16,9.3,9.22z"/>
	<path class="st9" d="M15.53,11.08c-0.56,0.27-1.09,0.8-1.33,1.33c-0.23,0.51-0.25,1.63-0.04,2.34c0.42,1.43,2.04,2.17,3.28,1.49
		l0.49-0.26l0.27,0.21c0.45,0.36,1.06,0.2,1.25-0.32c0.14-0.4,0.13-3.98-0.01-4.4c-0.19-0.54-0.76-0.69-1.25-0.29
		c-0.22,0.17-0.31,0.19-0.44,0.09C17.11,10.81,16.24,10.74,15.53,11.08z M17.41,12.54c0.35,0.23,0.55,0.81,0.48,1.33
		c-0.13,0.93-0.88,1.43-1.61,1.08c-0.46-0.22-0.71-0.67-0.7-1.27C15.6,12.57,16.56,11.97,17.41,12.54z"/>
	<path class="st9" d="M24.49,10.95c-0.75,0.23-1.37,0.79-1.7,1.52c-0.32,0.7-0.29,1.92,0.05,2.6c0.49,1,1.43,1.49,2.65,1.41
		c0.83-0.06,1.37-0.33,1.9-0.93c0.47-0.53,0.64-1.02,0.64-1.88c0-0.93-0.17-1.38-0.76-1.99c-0.38-0.39-0.64-0.55-1.05-0.68
		C25.64,10.85,24.92,10.82,24.49,10.95z M25.75,12.41c0.42,0.18,0.7,0.67,0.7,1.27s-0.25,1.04-0.72,1.26
		c-0.33,0.16-0.41,0.16-0.79,0.04c-1.04-0.36-1.11-2.13-0.1-2.57C25.24,12.24,25.33,12.24,25.75,12.41z"/>
</g>
</svg>
